<?xml version="1.0" encoding="UTF-8" standalone="no"?>
<!DOCTYPE svg PUBLIC "-//W3C//DTD SVG 1.1//EN"
 "http://www.w3.org/Graphics/SVG/1.1/DTD/svg11.dtd">
<!-- Generated by graphviz version 2.30.1 (20201013.1554)
 -->
<!-- Title: %3 Pages: 1 -->
<svg width="170pt" height="332pt"
 viewBox="0.00 0.00 170.25 332.00" xmlns="http://www.w3.org/2000/svg" xmlns:xlink="http://www.w3.org/1999/xlink">
<g id="graph0" class="graph" transform="scale(1 1) rotate(0) translate(4 328)">
<title>%3</title>
<polygon fill="white" stroke="white" points="-4,5 -4,-328 167.251,-328 167.251,5 -4,5"/>
<!-- 0 -->
<g id="node1" class="node"><title>0</title>
<ellipse fill="black" stroke="black" cx="133" cy="-306" rx="18" ry="18"/>
</g>
<!-- 1 -->
<g id="node2" class="node"><title>1</title>
<ellipse fill="black" stroke="black" cx="133" cy="-234" rx="18" ry="18"/>
</g>
<!-- 0&#45;&#45;1 -->
<g id="edge1" class="edge"><title>0&#45;&#45;1</title>
<path fill="none" stroke="black" d="M133,-287.697C133,-276.846 133,-262.917 133,-252.104"/>
</g>
<!-- 4 -->
<g id="node5" class="node"><title>4</title>
<ellipse fill="black" stroke="black" cx="87" cy="-90" rx="18" ry="18"/>
</g>
<!-- 0&#45;&#45;4 -->
<g id="edge2" class="edge"><title>0&#45;&#45;4</title>
<path fill="none" stroke="black" d="M123.714,-290.292C117.657,-279.974 110.134,-265.638 106,-252 90.6506,-201.362 87.5988,-138.27 87.0605,-108.326"/>
</g>
<!-- 5 -->
<g id="node6" class="node"><title>5</title>
<ellipse fill="black" stroke="black" cx="87" cy="-18" rx="18" ry="18"/>
</g>
<!-- 0&#45;&#45;5 -->
<g id="edge3" class="edge"><title>0&#45;&#45;5</title>
<path fill="none" stroke="black" d="M142.801,-290.431C149.088,-280.176 156.674,-265.857 160,-252 163.735,-236.442 161.534,-231.926 160,-216 153.749,-151.102 160.242,-130.765 132,-72 124.262,-55.8984 110.431,-40.7001 100.138,-30.7424"/>
</g>
<!-- 3 -->
<g id="node4" class="node"><title>3</title>
<ellipse fill="black" stroke="black" cx="41" cy="-162" rx="18" ry="18"/>
</g>
<!-- 1&#45;&#45;3 -->
<g id="edge4" class="edge"><title>1&#45;&#45;3</title>
<path fill="none" stroke="black" d="M119.027,-222.369C101.735,-209.212 72.4567,-186.934 55.1043,-173.732"/>
</g>
<!-- 1&#45;&#45;4 -->
<g id="edge5" class="edge"><title>1&#45;&#45;4</title>
<path fill="none" stroke="black" d="M127.723,-216.711C118.897,-189.465 101.236,-134.946 92.3569,-107.537"/>
</g>
<!-- 1&#45;&#45;5 -->
<g id="edge6" class="edge"><title>1&#45;&#45;5</title>
<path fill="none" stroke="black" d="M133.049,-215.641C132.677,-185.645 129.869,-122.478 114,-72 109.726,-58.4053 102.214,-44.0662 96.1971,-33.7357"/>
</g>
<!-- 2 -->
<g id="node3" class="node"><title>2</title>
<ellipse fill="black" stroke="black" cx="18" cy="-234" rx="18" ry="18"/>
</g>
<!-- 2&#45;&#45;3 -->
<g id="edge7" class="edge"><title>2&#45;&#45;3</title>
<path fill="none" stroke="black" d="M23.3345,-216.765C26.9971,-205.618 31.8444,-190.865 35.5347,-179.633"/>
</g>
<!-- 2&#45;&#45;5 -->
<g id="edge8" class="edge"><title>2&#45;&#45;5</title>
<path fill="none" stroke="black" d="M14.7278,-216.061C11.8191,-198 8.76637,-168.662 14,-144 23.6514,-98.5203 57.4765,-53.494 75.4964,-32.0167"/>
</g>
<!-- 3&#45;&#45;4 -->
<g id="edge9" class="edge"><title>3&#45;&#45;4</title>
<path fill="none" stroke="black" d="M50.5312,-146.496C58.426,-134.482 69.5896,-117.494 77.481,-105.485"/>
</g>
<!-- 3&#45;&#45;5 -->
<g id="edge10" class="edge"><title>3&#45;&#45;5</title>
<path fill="none" stroke="black" d="M43.2931,-143.907C46.044,-125.717 51.3935,-96.2726 60,-72 64.7624,-58.5687 72.2363,-44.2168 78.1143,-33.8398"/>
</g>
<!-- 4&#45;&#45;5 -->
<g id="edge11" class="edge"><title>4&#45;&#45;5</title>
<path fill="none" stroke="black" d="M87,-71.6966C87,-60.8463 87,-46.9167 87,-36.1043"/>
</g>
</g>
</svg>
