<?xml version="1.0" encoding="UTF-8" standalone="no"?>
<!DOCTYPE svg PUBLIC "-//W3C//DTD SVG 1.1//EN"
 "http://www.w3.org/Graphics/SVG/1.1/DTD/svg11.dtd">
<!-- Generated by graphviz version 2.30.1 (20201013.1554)
 -->
<!-- Title: %3 Pages: 1 -->
<svg width="152pt" height="188pt"
 viewBox="0.00 0.00 152.00 188.00" xmlns="http://www.w3.org/2000/svg" xmlns:xlink="http://www.w3.org/1999/xlink">
<g id="graph0" class="graph" transform="scale(1 1) rotate(0) translate(4 184)">
<title>%3</title>
<polygon fill="white" stroke="white" points="-4,5 -4,-184 149,-184 149,5 -4,5"/>
<!-- 0 -->
<g id="node1" class="node"><title>0</title>
<ellipse fill="black" stroke="black" cx="99" cy="-162" rx="18" ry="18"/>
</g>
<!-- 1 -->
<g id="node2" class="node"><title>1</title>
<ellipse fill="black" stroke="black" cx="72" cy="-90" rx="18" ry="18"/>
</g>
<!-- 0&#45;&#45;1 -->
<g id="edge1" class="edge"><title>0&#45;&#45;1</title>
<path fill="none" stroke="black" d="M92.7378,-144.765C88.3759,-133.456 82.5827,-118.437 78.2282,-107.147"/>
</g>
<!-- 4 -->
<g id="node5" class="node"><title>4</title>
<ellipse fill="black" stroke="black" cx="126" cy="-90" rx="18" ry="18"/>
</g>
<!-- 0&#45;&#45;4 -->
<g id="edge2" class="edge"><title>0&#45;&#45;4</title>
<path fill="none" stroke="black" d="M105.262,-144.765C109.624,-133.456 115.417,-118.437 119.772,-107.147"/>
</g>
<!-- 3 -->
<g id="node4" class="node"><title>3</title>
<ellipse fill="black" stroke="black" cx="18" cy="-18" rx="18" ry="18"/>
</g>
<!-- 1&#45;&#45;3 -->
<g id="edge3" class="edge"><title>1&#45;&#45;3</title>
<path fill="none" stroke="black" d="M61.3313,-75.1703C51.8644,-62.8983 38.1067,-45.0643 28.6465,-32.801"/>
</g>
<!-- 5 -->
<g id="node6" class="node"><title>5</title>
<ellipse fill="black" stroke="black" cx="72" cy="-18" rx="18" ry="18"/>
</g>
<!-- 1&#45;&#45;5 -->
<g id="edge4" class="edge"><title>1&#45;&#45;5</title>
<path fill="none" stroke="black" d="M72,-71.6966C72,-60.8463 72,-46.9167 72,-36.1043"/>
</g>
<!-- 2 -->
<g id="node3" class="node"><title>2</title>
<ellipse fill="black" stroke="black" cx="18" cy="-90" rx="18" ry="18"/>
</g>
<!-- 2&#45;&#45;3 -->
<g id="edge5" class="edge"><title>2&#45;&#45;3</title>
<path fill="none" stroke="black" d="M18,-71.6966C18,-60.8463 18,-46.9167 18,-36.1043"/>
</g>
<!-- 2&#45;&#45;5 -->
<g id="edge6" class="edge"><title>2&#45;&#45;5</title>
<path fill="none" stroke="black" d="M28.6687,-75.1703C38.1356,-62.8983 51.8933,-45.0643 61.3535,-32.801"/>
</g>
<!-- 4&#45;&#45;5 -->
<g id="edge7" class="edge"><title>4&#45;&#45;5</title>
<path fill="none" stroke="black" d="M115.331,-75.1703C105.864,-62.8983 92.1067,-45.0643 82.6465,-32.801"/>
</g>
</g>
</svg>
